<?xml version="1.0" standalone="no"?>
<!DOCTYPE svg PUBLIC "-//W3C//DTD SVG 20010904//EN"
 "http://www.w3.org/TR/2001/REC-SVG-20010904/DTD/svg10.dtd">
<svg version="1.0" xmlns="http://www.w3.org/2000/svg"
 width="500.000000pt" height="500.000000pt" viewBox="0 0 500.000000 500.000000"
 preserveAspectRatio="xMidYMid meet">
<metadata>
Created by potrace 1.11, written by Peter Selinger 2001-2013
</metadata>
<g transform="translate(0.000000,500.000000) scale(0.100000,-0.100000)"
fill="#000000" stroke="none">
<path d="M3461 3507 c-37 -18 -352 -356 -367 -393 -20 -47 -18 -133 4 -171 24
-44 311 -352 344 -369 41 -21 83 -17 118 12 49 42 64 80 63 159 -1 84 -9 107
-58 165 -46 55 -55 78 -55 140 0 65 12 93 65 152 91 102 79 249 -25 303 -35
18 -57 19 -89 2z"/>
<path d="M877 3498 c-22 -17 -37 -61 -37 -107 0 -58 -21 -71 -113 -71 -97 0
-117 -15 -117 -88 0 -69 20 -85 118 -92 69 -5 78 -7 91 -31 13 -24 13 -29 -2
-53 -16 -24 -23 -26 -83 -26 -63 0 -101 -11 -116 -34 -4 -6 -8 -36 -8 -67 0
-76 15 -89 104 -89 58 0 70 -3 91 -25 23 -22 25 -32 25 -116 0 -74 4 -98 20
-124 37 -60 62 -65 317 -65 202 0 232 2 262 18 63 34 71 64 71 259 0 167 -1
173 -24 200 -20 23 -32 28 -71 28 -39 0 -51 -5 -71 -28 -22 -26 -24 -37 -24
-126 0 -125 -5 -131 -113 -131 -70 0 -78 2 -93 25 -30 45 5 85 75 85 41 0 61
28 61 86 0 27 -4 54 -8 60 -12 18 -49 34 -79 34 -16 0 -34 5 -41 12 -16 16
-15 73 1 86 6 5 45 12 86 14 62 3 76 7 92 27 29 35 26 105 -6 136 -21 22 -33
25 -99 25 -93 0 -106 10 -106 86 0 45 -4 59 -25 79 -21 22 -33 25 -93 25 -39
0 -75 -5 -85 -12z"/>
<path d="M2646 3464 c-37 -36 -4 -84 58 -84 52 0 76 15 76 48 0 16 -5 33 -12
40 -18 18 -103 15 -122 -4z"/>
<path d="M2852 3468 c-19 -19 -15 -66 7 -78 11 -5 38 -10 60 -10 30 0 44 6 55
22 20 28 20 43 0 62 -19 19 -104 22 -122 4z"/>
<path d="M1654 3454 c-51 -18 -94 -62 -102 -105 -4 -19 -4 -171 -1 -339 5
-284 7 -309 28 -362 13 -34 36 -69 57 -87 35 -31 35 -31 154 -31 65 0 126 3
135 6 23 9 51 70 64 139 6 32 11 153 11 268 l0 208 23 -3 22 -3 8 -280 c7
-266 8 -280 29 -302 17 -18 32 -23 72 -23 57 1 80 14 96 54 6 17 10 152 10
355 0 367 -5 403 -62 458 -60 58 -86 63 -305 62 -146 0 -209 -4 -239 -15z
m184 -296 c9 -9 12 -68 12 -204 0 -162 -3 -195 -16 -208 -18 -19 -38 -20 -65
-6 -18 10 -19 23 -19 208 0 212 2 222 50 222 14 0 31 -5 38 -12z"/>
<path d="M3715 3435 c-25 -24 -25 -25 -25 -220 0 -254 5 -264 127 -265 62 0
76 3 100 24 l28 24 0 205 c0 204 0 206 -24 231 -22 24 -32 26 -103 26 -70 0
-82 -3 -103 -25z"/>
<path d="M4085 3435 l-25 -24 0 -255 0 -254 -25 -30 c-23 -27 -31 -30 -105
-34 -107 -6 -130 -26 -137 -119 -7 -87 10 -145 47 -164 43 -22 173 -20 253 5
88 27 162 94 203 182 l29 63 0 303 0 304 -28 24 c-25 21 -38 24 -108 24 -72 0
-82 -3 -104 -25z"/>
<path d="M2339 3321 c-27 -28 -29 -34 -29 -110 0 -75 2 -83 29 -113 l29 -33
182 -5 182 -5 29 -33 c48 -54 35 -129 -28 -161 -12 -6 -56 -11 -98 -11 -91 0
-138 -17 -159 -59 -20 -38 -21 -133 -1 -171 29 -55 57 -62 254 -58 176 3 178
3 214 30 19 16 46 43 59 60 22 32 23 40 26 281 3 281 -4 332 -59 386 l-31 31
-285 0 -285 0 -29 -29z"/>
<path d="M896 2435 c-9 -9 -16 -24 -16 -34 0 -34 -21 -41 -128 -41 -144 0
-142 2 -142 -125 0 -124 3 -128 102 -118 76 7 108 -6 108 -42 0 -26 -10 -37
-118 -128 -85 -73 -92 -89 -92 -232 0 -154 24 -162 150 -49 106 94 123 103
150 79 17 -15 20 -31 20 -100 0 -50 5 -86 12 -93 19 -19 242 -16 258 3 9 11
10 77 4 274 -5 204 -4 264 6 276 9 11 32 15 81 15 95 0 109 14 109 114 0 102
-12 115 -109 118 -78 3 -77 2 -103 63 l-13 30 -132 3 c-109 2 -134 0 -147 -13z"/>
<path d="M1995 2396 c-44 -19 -173 -163 -185 -206 -16 -57 -12 -161 8 -200 19
-38 56 -56 93 -47 14 4 70 59 129 127 87 99 110 120 133 120 33 0 56 -38 41
-70 -5 -11 -79 -100 -165 -197 -86 -98 -161 -188 -167 -200 -15 -28 -15 -88
-1 -116 17 -33 71 -88 97 -98 51 -20 68 -4 323 303 189 227 250 307 255 334
10 56 -2 160 -23 196 -35 62 -63 68 -298 68 -152 -1 -218 -4 -240 -14z"/>
<path d="M2649 2395 c-70 -38 -60 -179 13 -204 40 -14 146 -14 186 0 74 26 83
168 11 204 -37 20 -174 19 -210 0z"/>
<path d="M3102 2395 c-23 -10 -39 -28 -53 -60 -19 -42 -20 -63 -17 -253 3
-183 1 -211 -15 -239 -27 -51 -61 -63 -180 -63 -91 0 -108 -3 -131 -21 -75
-59 -75 -189 0 -248 28 -22 36 -23 164 -19 116 3 141 7 178 27 104 54 178 159
201 285 6 33 11 157 11 275 0 192 -3 221 -20 259 -14 31 -29 47 -54 57 -42 18
-42 18 -84 0z"/>
<path d="M3763 2403 c-12 -2 -33 -16 -47 -30 -21 -21 -26 -35 -26 -78 0 -47 4
-56 31 -79 28 -24 38 -26 124 -26 85 0 97 2 122 24 24 21 28 31 28 79 0 64
-19 92 -74 107 -35 10 -115 11 -158 3z"/>
<path d="M4215 2400 c-11 -4 -33 -22 -49 -39 -28 -29 -30 -38 -37 -138 -4 -60
-8 -146 -8 -193 -1 -149 -43 -190 -191 -190 -95 0 -140 -16 -174 -63 -17 -23
-21 -43 -21 -107 0 -89 16 -122 76 -153 29 -15 53 -18 154 -15 104 4 128 7
178 31 76 34 175 130 213 205 l29 57 3 255 c2 233 1 258 -16 289 -30 56 -102
84 -157 61z"/>
<path d="M2652 2080 c-56 -24 -67 -144 -17 -187 23 -20 37 -23 119 -23 109 0
141 16 152 76 8 46 -11 111 -37 125 -28 14 -189 21 -217 9z"/>
<path d="M1302 1964 c-68 -47 -70 -198 -3 -234 12 -6 100 -10 214 -10 191 0
194 0 216 24 50 54 46 160 -9 209 l-30 27 -183 0 c-149 0 -187 -3 -205 -16z"/>
<path d="M3332 1927 c-29 -30 -28 -62 3 -92 22 -22 32 -25 105 -25 44 0 80 -4
80 -9 0 -5 -40 -12 -90 -15 -99 -8 -120 -22 -120 -78 0 -52 29 -68 126 -68 64
0 85 -3 82 -12 -3 -9 -35 -15 -92 -18 -72 -4 -90 -9 -102 -24 -20 -29 -17 -54
11 -81 23 -24 29 -25 158 -25 193 0 182 -14 182 235 0 250 11 235 -184 235
-131 0 -139 -1 -159 -23z"/>
</g>
</svg>
